<?xml version="1.0" encoding="UTF-8"?>
<svg id="Hands_xA0_Image" xmlns="http://www.w3.org/2000/svg" version="1.1" viewBox="0 0 1190.64 841.92">
  <!-- Generator: Adobe Illustrator 29.2.1, SVG Export Plug-In . SVG Version: 2.1.0 Build 116)  -->
  <g>
    <path d="M898.55,655.51c1.34,1.39-.08,1.74-1.42,1.91-15.36,1.91-32.96-.24-48.49,0l.57-2.96c1.52-.58,3.05-.81,4.67-.92,11.22-.76,27.98.17,39.44.96,1.85.13,3.48.53,5.23,1.02Z"/>
    <path d="M866.88,404.05v3.83c-11.65-.54-23.42.67-35.03.43-2.45-.05-14.38-.23-14.89-1.86l.55-2.42,49.37.02Z"/>
    <path d="M830.41,702.53c3.97-.02,8.15-1.65,12.01-1.91,4.58-.31,8.44.69,12.46.75,5.06.08,11.72-2.33,16.78,1.63-.13,3.6-13.51,1.45-15.83,1.49-6.05.12-17.09,1.8-22.36.24-1.22-.36-2.8-.73-3.05-2.21Z"/>
    <path d="M1028.13,662.22l-3.9,4.25-41.21,17.81c-1.52-1.37,6.07-5.44,7.02-5.92,8.84-4.5,21.13-9.78,30.42-13.73,2.32-.99,5.17-1.92,7.66-2.41Z"/>
    <path d="M807.33,551.79l-32.59,10.6c-.1-2.54,2.83-4.28,4.74-5.32,2.47-1.35,25.01-9.31,26.38-9.03s1.82,2.47,1.46,3.75Z"/>
    <path d="M836.73,371.47c2.56-.68,18.04,3.92,21.72,5.02,1.86.56,10.26,2.53,10.33,4.05-1.58,2.1-3.91,1.55-6.11,1.34-3.31-.32-25.8-6.81-27-8.53-.6-.87.46-1.71,1.06-1.87Z"/>
    <path d="M837.13,340.69c2.11-3.82,8.19-3.1,11.98-2.85,2.64.17,24.46,3.74,24.47,5.26-1.28,1.54-1.97,2.36-4.16,2.36-6.05,0-18.31-3.69-25.21-4.64-2.35-.32-4.73-.05-7.08-.13Z"/>
    <path d="M866.88,469.31l-2.31,2.82c-8.99-.97-18.01-2.74-26.97-3.78-4.05-.47-7.31.36-11.68-.84-1.64-.45-2.67.7-2.22-2.04,14.55-.48,28.89,1.78,43.18,3.84Z"/>
    <path d="M864.97,505.78v3.83c-9.4.1-18.79-1.27-28.16-2.07l-2.55-3.67,30.72,1.92Z"/>
    <path d="M768.98,622.87c2.84,2.49-14,8.94-15.11,9.35-1.52.56-16.63,6.59-16.53,2.64,3.77-1.97,29.91-13.52,31.65-11.99Z"/>
    <path d="M943.66,693.89c.74,2.4-4.93,3.21-6.5,3.57-12.54,2.91-26.75,4.16-39.56,6.01-.23-1.38,1.66-1.3,2.67-1.62,13.51-4.39,29.3-6.09,43.39-7.96Z"/>
    <path d="M830.4,663.17c2.7,2.51-8.09,3.69-9.12,3.82-3.31.42-12.24,1.22-15.35,1.06-1.11-.06-3.1-.4-3.35-1.54-1.37-6.45,24.48-1.33,27.82-3.34Z"/>
    <path d="M1059.8,644.94c.29,2.28-2.36,3.3-3.95,4.2-7.15,4.09-16.78,8.53-24.84,10.18-.54-2.57.68-1.65,1.89-2.38,1.97-1.18,4.09-2.43,6.1-3.53,6.09-3.31,14.1-7.7,20.79-8.48Z"/>
    <path d="M1161.03,421.45c.35-.04,1.78.81,2.89.83,7.36.14,14.81.39,22.15.91,1.72.12,3.11-.26,4.26,1.48-1.15,1.75-2.54,1.35-4.26,1.48-8.3.62-17.33-.17-25.51-1.45-1.66-.96-.66-3.12.48-3.26Z"/>
    <path d="M809.29,447.23v-2.87c8.58-.98,17.39-2.01,25.91-.96,2.1,1.76-5.41,3.83-6.23,3.83h-19.68Z"/>
    <path d="M1045.89,410.76c2.44.21,6.42,1.68,9.12,1.93-.57,2.14-2.59,1.82-4.27,1.96-4.74.39-21.09-.52-25.33-1.69-1.71-.47-2.48.31-2.08-2.19,7.32.47,15.33-.64,22.56,0Z"/>
    <path d="M767.06,498.1c.33,1.94-1.23,2.74-2.55,3.68-6.17,4.4-14.73,9.25-21.4,13.15-1.26.74-1.89,1.93-3.87,1.4-1.81-1.66,7.7-7.4,8.71-8.08,2.42-1.62,17.71-11.4,19.12-10.15Z"/>
    <path d="M782.42,524.02l-23.03,16.8c-6.48-.24-.3-3.91,2.02-5.67,5.8-4.4,13.9-10.11,21.01-11.13Z"/>
    <path d="M899.51,419.4l-24.39-4.71-.56-2.96c.85-.87,22.6,3.21,23.96,4.34s1.08,1.77.98,3.32Z"/>
    <path d="M729.15,456.85l1.46,2.39-1,1.89c-5.88,1.59-11.76,5.78-17.29,7.66-1.7.58-4.45,2.12-5.71.03l22.54-11.98Z"/>
    <path d="M783.38,416.53c.52,2.13-1.25,2.13-2.2,3.07-6.3,6.2-14.2,12.47-22.75,15.15,1.15-3.76,5.55-4.93,8.55-7.27,2.14-1.67,14.11-13,16.4-10.95Z"/>
    <path d="M925.3,653.71l1.09,3.69c-6.99.54-14.2,1.97-21.12.96.56-1.2,1.23-3.26,2.54-3.68,1.73-.55,16.83-1.58,17.48-.97Z"/>
    <path d="M1129.39,420.36l-7.19-.97c-.25-1.84.6-2.53,2.34-2.76,3.23-.42,15.51.6,19.14.96,3.27.33,5.52,1.83,9.14,1.26,2-.32,1.23-.19,1.05,1.5h-24.48Z"/>
    <path d="M891.71,609.55c4.11,5.79-8.23-.16-9.35-.72-1.97-.98-16.29-8.05-13.55-10.91l22.9,11.64Z"/>
    <path d="M909.11,577.75l-28.79-13.9c1.49-1.98,3.55-1.72,5.5-.71,7.29,5.27,17.09,8.51,23.29,14.61Z"/>
    <path d="M953.27,694.84c-2-1.81,10.61-7.57,11.65-8.02,2.66-1.15,7.21-2.83,9.99-3.47,1.56-.36,1.79-1.76,3.3.45-.13,1.78-23.91,11.95-24.93,11.03Z"/>
    <path d="M846.73,657.41v2.87c-5.49.36-12.3,2.32-17.75,2-1.54-.09-2.4-.12-3.34-1.51.74-.55,3-3.36,3.34-3.36h17.76Z"/>
    <path d="M1173.54,598.87c.8.23,1.75,1.85,1.43,2.87-6.05-.53-11.73,1.56-17.8,1.01-2.49-.23-6.24-.48-6.19-3.88h22.56Z"/>
    <path d="M1084.76,409.81c-.36,1.74-1.88,1.79-3.32,1.95-4.97.55-13.63,1.42-18.33.97-4.37-.42-6.9-2.67-1.4-3.4,7.16-.95,15.89-.78,23.04.48Z"/>
    <path d="M868.8,454.9c-7.9-1.65-17.28-2.98-24.53-6.65-1.38-.7-2.73-.89-2.34-2.93,1.09-.94,25.06,5.68,26.87,9.58Z"/>
    <path d="M766.1,581.6c-.65,2.95-3.41,3.81-5.88,5.15-1.85,1-15.54,6.94-16.19,6.36-.49-2.09,1.17-2.13,2.19-3.08,2.61-2.42,17.28-10.35,19.88-8.43Z"/>
    <path d="M892,522.89c-.49-.8-.84-4.47,1.25-3.66l19.68,12.93c-1.36,2.08-2.31.93-4,.19-2-.88-16.42-8.64-16.93-9.46Z"/>
    <path d="M1107.31,417.48c2.34.17,5.97,1.89,9.11.96.41,2.53-.36,1.74-2.11,2.14-3.19.73-20.08.36-23.32-.23-1.66-.3-2.69-1.03-2.41-2.87,6.12.33,12.64-.45,18.72,0Z"/>
    <path d="M720.03,530.73c1.11.98-4.86,6.4-5.74,7.21-2.94,2.71-8.33,7.31-11.48,9.63-1.3.96-2.02,1.77-3.89,1.38-.9-.72,14.47-15.34,15.84-16.3,1.66-1.17,3.07-2.24,5.27-1.92Z"/>
    <path d="M1013.25,408.84c.77.1,2.06,1.39,3.36.97v1.91h-20.64c-1.34,0-9.29-1.87-7.19-3.83,1.81-.85,4.41.95,5.27.95,5.75,0,13.84-.72,19.2,0Z"/>
    <path d="M759.39,576.79c-1.41-5.93,18.25-12.4,18.21-8.15-4.83,4.87-12.16,5.55-18.21,8.15Z"/>
    <path d="M818.41,509.61c.48.05,4.33,1.23,4.36,1.45l-.04,3.34-19.21-1.92v-2.87c4.78.38,10.21-.52,14.88,0Z"/>
    <path d="M860.08,549.05l.08,2.78c-1.2,1.23-21.04-5.61-21.1-7.19,1.26-1.83,2.17-1.5,4.07-1.24,4.99.69,11.67,4.74,16.94,5.65Z"/>
    <path d="M827.05,700.6c.74.21,1.95,2.15,1.44,2.87-2.42.78-4.63,1.05-7.2,1.03-2.77-.03-12.02-.63-14.19-1.22-.77-.21-1.64-.85-1.64-1.71,1.25.44,2.83-.97,3.36-.97,4.02,0,15.4-.81,18.24,0Z"/>
    <path d="M1081.87,628.63c1.16,1.42-2.42,3.21-3.33,3.85-1.99,1.38-14.66,9.82-15.85,8.61-1.05-1.06.23-2.31,1.17-3.16,1.22-1.1,13.39-9.23,14.47-9.56.92-.28,3.23-.12,3.54.26Z"/>
    <path d="M1145.1,602.58c-6.73,2.03-14.7,8.36-21.19,10.01-1.8.46-2.22,1.24-3.62-.77l24.46-11.99.34,2.75Z"/>
    <path d="M801.62,519.22v2.87c-5.24.24-12.55,3.29-16.32-1.45-.93-4.39,13.75-1.73,16.32-1.42Z"/>
    <path d="M957.58,405.96c-.32-.08-1.47-1.31-1.44-1.91,9.32-.83,18.53-1.67,27.83,0,.41.97-2.24,1.91-2.39,1.91-5.49,0-19.83,1.06-24,0Z"/>
    <path d="M833.28,541.29l-.64,2.89-20.47,4.78c-4.2-3.65,19.82-7.58,21.1-7.67Z"/>
    <path d="M707.56,492.33c-.3-3.11,3.4-3.01,5.57-3.54,1.93-.47,13.62-2.67,13.6.18-2.33,2.68-17.84,5.11-19.17,3.35Z"/>
    <path d="M923.17,539.7c2.75,2.78,5.35,10.12,5.13,14.06-2.24,2.63-9.36-13.05-9.46-14.08-.11-1.26.5-1.46,1.3-2.21.76,1.03,2.22,1.42,3.02,2.24Z"/>
    <path d="M864.82,590.37l.14,3.7c-.98,1.07-12.97-4.67-14.71-5.91-1.32-.94-2.89-1.73-2.55-3.68l17.13,5.89Z"/>
    <path d="M786.25,609.43c.56,2.46-.68,1.68-1.8,2.48-2.16,1.54-15.14,7.45-16.42,6.15-.19-.19-.32-2.22.59-2.94,1.83-1.45,16.48-6.61,17.63-5.69Z"/>
    <path d="M939.42,391.02c2.8,2.29,6.17,4.01,8.08,7.26-6.09-1.97-14.88-8.1-19.18-12.92-.94-1.05-2.34-1.58-1.93-3.38,1.37-1.26,11.24,7.58,13.03,9.04Z"/>
    <path d="M808.34,382.92c3.04-4.26,12.13-6.65,17.23-7.25,1.8-.21,2.52-1.01,3.87,1.02-.1,2.18-18,6.15-21.1,6.23Z"/>
    <path d="M890.87,514.43c.29,1.28-1.55,1.41-2.38,1.42-5.68.08-11.2-1.72-16.76-2.45l-.05-3.78,19.18,4.81Z"/>
    <path d="M841.92,582.56c.53,2.56-.66,1.65-1.89,2.38-3.17,1.88-10.72,5.28-14.17,6.02s-4.73.95-4.09-2.65l20.16-5.76Z"/>
    <path d="M768.99,494.25c-.35-1.73.85-2.39,1.97-3.29,5.56-4.48,14.3-6.67,20.09-11.1l-1.95,4.28-20.11,10.11Z"/>
    <path d="M802.58,381.96c-5.37.95-10.6-.28-15.75-1.81l-.56-3.94c.61-.64,15.83,2.41,16.31,5.74Z"/>
    <path d="M731.55,551.85c.34,1.92-1.28,2.7-2.42,3.8-2.03,1.96-8.12,6.08-10.68,7.55-2.91,1.67-3.48,1.82-3.73-1.79l16.84-9.57Z"/>
    <path d="M748.58,481.57c-.57.42-12.14,5.58-12.93,5.76-1.98.45-4.03.21-6.02.21.27-1.29,3-2.45,4.16-3.03,4.62-2.32,9.94-4.09,14.57-6.53,1.68.74,1.18,2.88.23,3.6Z"/>
    <path d="M918.71,629.57c-5.11-1.17-12.09-4.12-16.6-6.9-2.2-1.36-5.19-2.34-4.51-5.56l18.55,9.75,2.56,2.71Z"/>
    <path d="M889.91,393.48l-16.31-4.8.97-3.83c.57-.43,11.63,4.56,13.13,5.57,1.23.83,2.62,1.09,2.21,3.06Z"/>
    <path d="M774.75,357.01c-.28-2.35,2.12-3.42,3.78-4.37,5.19-2.95,11.86-3.88,17.32-6.19l-1.97,3.3-19.13,7.26Z"/>
    <path d="M803.34,451.87c-.56.96-19.21,10.59-19.95,9.76l.64-2.89c6.38-2.69,12.73-6.25,19.03-9.57.91.13.6,2.14.27,2.71Z"/>
    <path d="M776.66,465.48c-6.33,6.54-16.22,8.94-23.99,13.43l1.2-3.13,22.79-10.29Z"/>
    <path d="M876.95,457.81c1.17-.02,15.25,8.24,14.88,10.04-.23,1.08-1.52,1.58-2.87.98-1.99-.88-11.48-7.13-12.5-8.64-.87-1.27-.69-2.37.49-2.39Z"/>
    <path d="M744.02,596.96c3.36,2.94-15.67,7.86-17.27,7.67-1.78-1.7,5.93-4.94,6.72-5.26,1.6-.64,9.68-3.16,10.54-2.41Z"/>
    <path d="M818.89,468.35c.47,2.17-1.14,2.11-2.37,2.9-5.75,3.74-12.45,6-18.74,8.61-.45-2.07,1.02-2.18,2.22-3.05,1.84-1.33,17.93-9.31,18.88-8.46Z"/>
    <path d="M755.54,442.42l-18.23,11.53c-2.18-2.12,15.24-13.32,16.8-14.37l1.43,2.84Z"/>
    <path d="M827.53,338.79c.69.74.33,2.36-1.2,3.12-3.01,1.5-13.46,2.76-17.25,2.98-1.48.09-2.36,1.12-3.62-.84,5.11-3.48,11.65-2.16,17.52-3.58,1.15-.28,3.93-2.35,4.54-1.68Z"/>
    <path d="M919.66,376.21c-.79.86-17.49-11.88-18.23-14.39,3.15-.21,5.73,2.12,8.14,3.85,1.37.99,11.36,9.16,10.09,10.54Z"/>
    <path d="M878.4,561.43c-.81.71-12.31-5.83-13.76-6.86-1.31-.94-2.88-1.74-2.55-3.68,1.22-1.09,16.55,6.26,16.31,10.54Z"/>
    <path d="M898.56,359.89c-2.94-.7-19.13-9.52-19.18-11.03,1.1-1.25,1.14-1.73,2.86-.97,5.06,2.23,13,7.55,16.32,12Z"/>
    <path d="M1089.57,627.66c-.12-2.17-.56-2.06,1.18-3.15,5.47-3.41,14.95-6,20.87-9.33.43,1.99-.96,2.23-2.2,3.07-5.58,3.75-13.83,6.22-19.85,9.41Z"/>
    <path d="M751.7,541.29c.35,1.73-.85,2.39-1.97,3.29s-12.69,8-13.37,7.25c-.45-2.46.06-2.04,1.18-3.16,1.41-1.41,13.17-8.35,14.17-7.38Z"/>
    <path d="M933.1,561.44c.57,6.35,1.4,12.94-.47,19.19-3.45-2.48-1.5-4.78-1.57-7.29-.11-3.71-.45-6.48.15-10.45.19-1.29.43-3.03,1.88-1.45Z"/>
    <path d="M816.71,591.91c-1,1-13.59,5.55-14.13,5.03,1.57-5.19,9.39-5.45,13.1-8.52l2.23,1.32c-.67.54-.65,1.62-1.19,2.17Z"/>
    <path d="M929.19,584.56l.07,2.79c-1.23,1.28-14.15-3.45-13.43-7.67l13.36,4.88Z"/>
    <path d="M895.68,395.41c1.38-1.52,9.02,7.21,9.77,8.95,1.27,2.92-1.51,3.48-3.9,1-.97-1.01-6.75-8.98-5.87-9.95Z"/>
    <path d="M801.62,668.94c1.3,1.03-9.08,8.75-10.27,9.4-1,.55-2.81,1.76-3.16-.31s12.18-10.09,13.43-9.09Z"/>
    <path d="M806.41,406.93c.67,2.53-1.98,2.24-3.62,2.58-4.95,1.04-10.51,1.38-15.57,1.24.33-1.83,2-1.59,3.32-1.95,4.76-1.31,10.9-1.64,15.88-1.87Z"/>
    <path d="M891.84,702.52v2.87s-13.44.96-13.44.96c1.05-5.76,9.2-3.39,13.44-3.83Z"/>
    <path d="M801.61,605.58l-12.47,2.88c-2.06-1.74,12.59-10.08,12.47-2.88Z"/>
    <path d="M736.34,518.26c1.68,1.55-10.4,10.72-12.46,10.55-1.33-1.4,10.47-12.39,12.46-10.55Z"/>
    <path d="M892.79,474.1c-.2,3.8,1.6,10.05-3.83,10.56v-10.56s3.83,0,3.83,0Z"/>
    <path d="M941.74,649.74c2.71,4.79-9.49,8.05-10.55,5.27,1.27-1.22,9.82-6.1,10.55-5.27Z"/>
    <path d="M726.75,606.55c.88.97-2.31,6.77-3.05,7.98-1.03,1.69-3.31,5.43-5.59,5.44.9-1.05,6.59-15.68,8.63-13.42Z"/>
    <path d="M775.14,368.13c1.39,1.44,3.58,2.76,3.43,5.2-1.94.42-2.56-.43-3.88-1.39-1.08-.79-6.74-6.55-3.3-7.23,1.75-.35,2.77,2.42,3.75,3.43Z"/>
    <path d="M695.58,481.78c2.23-.32,6.9,5.13,9.08,6.24-1.54,2.1-1.53,1.05-3.18.33-1.04-.46-10.54-5.9-5.9-6.57Z"/>
    <path d="M791.06,695.79c-.1-1.85-.45-1.93,1.45-1.94,1.74,0,9.99,2.01,10.04,3.39.13,3.07-10.33-1.47-11.5-1.45Z"/>
    <path d="M785.3,681.41c1.46-1.74,6.9,6.99,3.34,7.67-3.1.59-3.94-5.59-3.34-7.67Z"/>
    <path d="M722.92,622.86c.21-.26,2.76,1.49,3.27,2,.66.67,5,6.79,2,6.62-.99-.06-6.41-6.48-5.27-8.62Z"/>
    <path d="M881.66,476.6c1.32,1.21,2.61,1.92,3.45,3.75l-2.22.3-6.41-6.54c3.65-.86,3.55.99,5.18,2.49Z"/>
    <path d="M903.36,419.4c-.52-.49,3.47-8.06,5.74-7.67,1.19,1.53-2.42,9.12-5.74,7.67Z"/>
    <path d="M711.4,564.33c.9,2.92-3.46,2.09-5.29,1.92-1.68-.16-5.05-.3-4.3-2.88l9.6.96Z"/>
    <path d="M698.91,472.19v7.68s-2.87,0-2.87,0c.13-2.83-1.24-7.75,2.87-7.68Z"/>
    <path d="M697,553.77c4.17-.76,3.35,7.62,1.43,7.65l-1.43-7.65Z"/>
    <path d="M938.86,646.86c-2.84-1.79-5.18-5.18-4.78-8.64,2.87,1.56,4.73,5.42,4.78,8.64Z"/>
    <path d="M929.26,632.48c.48.55.25,2.56-1.38,1.86-1.1-1.11-6.79-3.6-6.28-5.22.71-2.27,1.85-.83,2.87-.02,1.17.93,4.6,3.16,4.79,3.38Z"/>
  </g>
  <g>
    <path d="M384.65,253.38c3.06,3.96-7.35,1.88-8.11,1.87-23.17-.33-49.13.2-72.02-1.88-1.51-.14-6.13-.3-5.28-2.87l85.41,2.88Z"/>
    <path d="M244.47,443.46l-.51,2.89c-1.19.43-2.33.83-3.64.8-11.01-.25-33.14-3.43-44.03-5.95-1.78-.41-3.18-.34-2.63-2.6l50.81,4.86Z"/>
    <path d="M360.65,132.45c.18,2.39.23,1.65-1.44,1.89-13.01,1.92-40.76.56-53.74-1.9-1.4-.27-2.98-.01-3.37-1.9,19.61-2.6,38.92,2.59,58.54,1.91Z"/>
    <path d="M374.1,307.12l-.43,2.93c-2.63,2.26-5.88.06-8.7-.04-10.54-.38-21.14.06-31.66-.97-.88-.09-7.54-.99-5.29-2.87,15.27-2.27,30.81.46,46.08.96Z"/>
    <path d="M267.55,399.24c-11.58-.01-23.49.15-34.9-2.04-6.21-1.19-9.79-4.91-2.19-4.6,8.39.34,21.44,1.65,29.78,2.93,2.36.36,7.61.43,7.31,3.72Z"/>
    <path d="M346.26,272.55c-1.34-1.4.08-1.74,1.42-1.91,6.14-.78,12.43.64,18.26.95,2.36.13,20.6-.53,20.61,2.41-1.15,1.75-2.54,1.35-4.26,1.48-11.67.87-24.46-1.48-36.03-2.94Z"/>
    <path d="M78.47,156.44l-1.39,3.61c-9.26-1.56-19.47,1.53-28.89.28-2.09-.28-3-.73-4.25-2.45,3.12-4.2,8.81-1.44,12.9-1.4,7.24.07,14.42-.54,21.63-.04Z"/>
    <path d="M236.84,255.28v-2.85c.98-1.2,27.56-3.5,30.7-3.46,1.57.02,2.52-1.1,3.84,1.04-.09,1.99-8.28,2.88-10.22,3.2-3.18.52-23.44,3.01-24.32,2.07Z"/>
    <path d="M126.46,425.15c-1.06,1.09-25.76-10.01-27.85-11.97-1.04-.97-2.22-1.74-1.89-3.38,1.12-1.09,27.91,10.68,28.85,11.93.87,1.16,1.1,1.97.89,3.42Z"/>
    <path d="M185.97,435.72c.22,1.47-.04,2.29-.91,3.47-1.14,1.55-21.51.62-24.51.36s-6.35-.45-5.28-3.83h30.7Z"/>
    <path d="M316.5,158.37l-11.1,1.69c-12.04-1.6-26.45,2.55-38.31.21-1.39-.28-2.97.02-3.37-1.9h52.78Z"/>
    <path d="M259.87,161.24c.31,1.62-1.21,3.22-2.59,3.64-2.54.76-22.23-.42-24.81-1.54-3.26-1.42-3.17-3.81,1.49-3.56,8.64.46,17.29.86,25.91,1.47Z"/>
    <path d="M28.56,176.58l-33.12,2.01-3.36-2.48c-.01-1.9,32.5-3,34.88-2.24,1.27.4,1.86,1.39,1.6,2.71Z"/>
    <path d="M327.07,158.36c10.95,1.89,22.13.35,33.17.96.98.05,6.21.09,6.15,1.44-1.15,1.75-2.54,1.36-4.26,1.48-5.96.44-27.9,1.16-32.76-.92-1.45-.62-2.67-1.06-2.31-2.95Z"/>
    <path d="M265.16,315.75c-.27.04-1.09,1.45-1.43.96v-3.83c11.86.48,23.84-1.49,35.5.02v2.86c-10.6,1.04-23.79-1.41-34.07,0Z"/>
    <path d="M320.34,198.66c-5.38-.72-10.58.95-15.81,1.01-4.53.05-8.9-.99-13.4-1.03-3.31-.03-9.53,3.28-12.06-.93,4.39.01,9.71-2,13.92-2.01,6.47-.01,14.06,1.09,21.16,1.09,2.7,0,6.11-2.57,6.19,1.87Z"/>
    <path d="M68.52,370.82c2.14,2.1,11.76,9.27,5.65,11.15-5.56-8.93-17.74-13.42-20.64-23.99,5.28,3.76,10.39,8.33,14.99,12.85Z"/>
    <path d="M-6.82,326.17l-.14-2.74c3.18-.36,25.85,1.75,25.9,4.31-1.15,1.76-2.54,1.34-4.25,1.48-2.88.23-20.35-1.22-21.51-3.05Z"/>
    <path d="M45.29,345.1c.29.37,1.11.54,1.48,1.13,1.24,1.96,3.14,7.58-.47,5.05-1.72-3.42-20.19-19.29-17.73-22.09,6.66,3.47,12.16,9.98,16.71,15.91Z"/>
    <path d="M297.79,275.44c.33.08,1.47,1.31,1.44,1.91l-29.28,2.02c-6.11-.19-5.17-3.93-.95-3.93,6.45,0,23.92-1.24,28.79,0Z"/>
    <path d="M129.34,136.27l-21.54.72-7.23-2.15c3.73-4,7.93-1.42,11.94-1.4,1.31,0,20.52-1.13,16.83,2.83Z"/>
    <path d="M256.04,316.71l-.96,3.84h-24.95v-1.91c1.6.28,4.49-1.93,5.28-1.93h20.64Z"/>
    <path d="M96.3,401.6c1.42,1.43,2.89,1.85,2.33,4.36-1.07.13-1.9.04-2.87-.48-1.11-.59-17.8-15.43-18.77-16.75s-1.78-2.01-1.38-3.89c.83-1.04,19.2,15.25,20.7,16.75Z"/>
    <path d="M245.96,201.54c-.36-.09-1.71-1.64-1.44-1.91,7.39-1.75,15.05-.69,22.59-.93,3.38-.11,9.65-3.33,10.03,1.87-2.85-1.04-7.31.96-9.11.96-5.1,0-18.2.99-22.08,0Z"/>
    <path d="M315.55,105.57c-.69-3.13,4.15-2.81,6.2-2.93,9.52-.52,18.96,2.59,28.35.05-.31,4.81-6.93,2.88-9.11,2.88h-25.43Z"/>
    <path d="M338.58,273.51c-5.09.6-11.5.36-16.78,0-4.95-.34-11.43-.76-15.84-2.38,2.16-2.25,6.23-1.54,9.11-1.43,5.28.21,15.34.63,20.15,1.83,1.36.34,3.03.16,3.37,1.98Z"/>
    <path d="M331.38,221.7c-.43-.02-1.58-.91-2.84-.99-4.35-.3-8.8.75-12.99-.94-.16-1.49,2.35-1.65,3.34-1.7,10.06-.52,21.49,1.96,31.71,1.7l1.42,1.92c-6.84-.27-13.8.36-20.64,0Z"/>
    <path d="M292.51,437.64l-.42,2.93c-1.51,2.07-19.78.59-20.68-1.5-.16-.37-.35-2.41.48-2.4l20.63.97Z"/>
    <path d="M293.47,403.08c-.77.67-18.45-.58-20.43-1.15-1.38-.4-2.9-2.03-2.59-3.64.98-.84,19.26,1.1,21.36,2.15,1.3.65,1.99,1.01,1.67,2.64Z"/>
    <path d="M313.63,222.65c-10.54-.37-21.71.22-32.19-.91-1.44-.15-2.96-.21-3.32-1.95,10.59-.28,21.64-.34,32.19.91,1.44.17,2.96.19,3.32,1.95Z"/>
    <path d="M153.28,428.12l.07,2.8c-7.9,1.39-15.27,1.03-23.04-.97-.25-1.43,1.8-1.18,2.86-1.42,2.77-.63,19.17-1.91,20.11-.41Z"/>
    <path d="M260.36,281.2c1.14.16,3.62,1.5,1.45,2.41-4.56,1.91-7.13.36-11.01.43-4.82.08-10.83,1.12-14.91-.43.64-.61,2.83-2.4,3.35-2.4,6.27,0,15.3-.8,21.12,0Z"/>
    <path d="M319.38,305.19v3.83c-1.86-.37-19.24,2.11-19.21-.49.02-1.88,4.15-3.35,5.29-3.35h13.92Z"/>
    <path d="M247.4,138.19c-.71.99-21.78,3.32-23.99.49,3.83-1.57,19.04-4.22,22.38-3.23,1.23.36,1.87,1.48,1.61,2.75Z"/>
    <path d="M95.27,143.96c.82.05,6.05.73,6.23.99v2.85s-20.14,0-20.14,0v-3.84c4.61.19,9.31-.27,13.92,0Z"/>
    <path d="M299.23,131.49c1.96,2.45-11.66,3.76-12.96,3.82-3.31.16-8.51.91-11.02-1.44l9.12-2.37h14.87Z"/>
    <path d="M198.45,109.41v2.88h-24.48c-.18,0-1.71-1.55-1.44-1.91.98.29,2.06-.97,2.4-.97h23.52Z"/>
    <path d="M204.21,386.76c-6.51,1.58-13.51,1.67-19.17-2.39-.02-2.57,15.03-1.48,17.5-.25,1.3.65,1.98,1.01,1.67,2.64Z"/>
    <path d="M281,104.61c-3.04-2.65,10.25-3.69,11.2-3.76,1.96-.15,12.74-.42,12.77,1.36-2.28,1.68-7.36,2.09-10.21,2.33-3.96.33-9.55-.54-13.76.07Z"/>
    <path d="M272.35,102.68h-24.47s-2.39-2.86-2.39-2.86c5.73-.79,11.44.64,16.83.99,3.09.2,7.6-2.54,10.03,1.87Z"/>
    <path d="M272.35,257.21c-.25-1.31.33-2.31,1.6-2.71,2.5-.79,20.89-.65,21.92.79l-.97,1.92h-22.56Z"/>
    <path d="M395.21,304.24l-.43,2.93c-2.08,2.85-13.44-.76-16.85-1.03l1.61-2.91,15.67,1Z"/>
    <path d="M263.72,440.51c-.41,1.9,1.32,4.86-1.45,4.84-4.79-.05-10.88-1.8-15.83-1.97l.96-2.87h16.32Z"/>
    <path d="M236.84,223.6c-3.54,1.58-16.44,5.8-18.23,1.44-.64-1.57.97-1.65,1.88-1.91,3.61-1.04,13.98-3.01,16.35.47Z"/>
    <path d="M387.54,222.66c2.91.25,21.04,1.98,21.09,4.31-1.24,1.85-2.33,1.42-4.16,1.35-1.3-.05-20.33-2.81-16.93-5.67Z"/>
    <path d="M378.89,220.74c4.97,4.33-16.32,2.14-17.76,1.93-1.61-.24-3.11.45-4.29-1.45,0-3.21,19.48.81,22.05-.47Z"/>
    <path d="M207.09,385.82c5.5-.46,12.77-1.58,17.25,2.39.05,2.06-17.44,3.11-17.25-2.39Z"/>
    <path d="M151.41,121.91l-.56,2.87c-5.86-.48-13.33.26-18.62-2.42,2.16-2.46,18.35-1.47,19.19-.45Z"/>
    <path d="M208.04,332.07c.44,2.33-.23,2.41-1.57,3.7-1.57,1.51-13.39,9.03-14.74,7.81-.38-1.8.9-2.32,1.99-3.28,1.41-1.23,13.43-9.17,14.32-8.23Z"/>
    <path d="M217.65,101.73c-.44-2.84.66-1.59,2.36-1.98,5.69-1.29,12.53.31,18.26-1.88,1.34-.07.67,3.85-1.91,3.85h-18.72Z"/>
    <path d="M272.35,132.45c3.5,2.99-13.6,4.88-14.88,4.88-1.66,0-3.22-.03-4.31-1.53l19.19-3.35Z"/>
    <path d="M274.27,218.81l-14.87.96-2.4-2.87c4.84,1.85,15.86-4.25,17.27,1.91Z"/>
    <path d="M28.56,166.99v-2.88h15.84l1.43,2.38-1.43,1.34c-.37.02-.7-.85-.96-.85h-14.88Z"/>
    <path d="M188.85,347.43c.42,1.81-1.02,2.27-1.92,3.35-1.21,1.46-10.74,10.63-12.47,9.11-1.08-.94,3.54-3.89,3.15-5.47l11.24-6.99Z"/>
    <path d="M294.43,436.67c-2-1.82,10.54-8.35,11.84-8.81,1.07-.38,2.21-1.05,2.55.67.55,2.79-13.5,8.95-14.39,8.14Z"/>
    <path d="M405.76,249.54c.79,4.9-13.61,2.72-14.39,1.9-1.44-1.53.33-1.63,1.33-2.01,4.24-1.61,8.72-.1,13.06.11Z"/>
    <path d="M184.05,380.06c.5,2.73-.68,1.57-2.11,2.15-2.63,1.08-11.41,3.8-11.3-.72.06-2.45,11.2-1.13,13.41-1.43Z"/>
    <path d="M374.09,171.8c1.08.86-11.78,12.04-14.4,11.5,1.37-2.35,12.59-12.93,14.4-11.5Z"/>
    <path d="M343.38,191.96c1.35,1.4-.08,1.74-1.42,1.91-2.73.34-12.29,1.28-12.01-2.88,4.51.08,9.1-.55,13.43.97Z"/>
    <path d="M158.62,117.09c-.39-.05-2.75-.94-2.39-1.91,4.72-.42,12.05-.63,16.81-.01,1.75.23,1.55-.33,1.42,1.92-4.98-.49-11.02.67-15.84,0Z"/>
    <path d="M225.32,321.51c.45,2.05-1.05,2.17-2.23,3.04-2.9,2.13-6.73,4.9-10.24,5.59,1.11-2.4,10.03-10.71,12.47-8.62Z"/>
    <path d="M406.72,303.27l-10.55-1.43c2.84-3.17,11.42-4.37,10.55,1.43Z"/>
    <path d="M368.33,119.01c-.04,4.17.75,9.12-2.39,12.45-2.18-1.38-1.06-2.19-.98-3.82.05-1.11.8-11.58,3.37-8.63Z"/>
    <path d="M201.33,105.56c-.26-1.25,1.78-1.54,2.63-1.67,1.71-.26,10.78-1.01,10.78,1.2-3.52,3.1-9.31.97-13.41.47Z"/>
    <path d="M297.81,405.96c.86-.12,9.98,4.23,10.04,5.28-1.49,2.16-1.7.89-3.31.47-1.34-.35-12.12-5.02-6.73-5.75Z"/>
    <path d="M407.67,288.88c1.56,3.27,2.52,5.81,1.93,9.59-1.55,1.88-8.17-10.07-1.93-9.59Z"/>
    <path d="M308.84,416.52c4.52,1,5.33,6.28,2.39,9.58-2.49-2.45-3.35-6.32-2.39-9.58Z"/>
    <rect x="168.7" y="364.69" width="2.87" height="9.61"/>
    <path d="M238.76,203.47c1.33,1.32-9.4,9.64-11.51,9.59l6.26-6.69,5.25-2.9Z"/>
    <path d="M224.36,156.43c-5.48,0-7.13-6.35-10.58-9.28l1.95-6.07,1.77,2.22-1.72,3.92,8.58,9.2Z"/>
    <path d="M345.3,187.15c-1.51-1.14-.03-1.75,1.42-1.92,2.21-.26,6.44-.47,8.67-.41,1.6.04,4.01-.16,3.35,2.34h-13.44Z"/>
    <path d="M249.31,214.98c2.66,2.14-8.26,4.71-9.58,1.42-.46-2.33,1.86-1.36,3.34-1.42,2.07-.09,4.18.05,6.24,0Z"/>
    <path d="M401.93,284.07c-3.61-.23-9.15-2.35-8.63-6.71.34-.43,8.44,4.95,8.63,6.71Z"/>
    <path d="M233,260.09c.94.95-5.42,10.02-6.71,8.63-.82-2.18,5.43-9.93,6.71-8.63Z"/>
    <path d="M376.01,164.11c-1.87,1.94-6.58-3.89-4.79-5.75s6.58,3.89,4.79,5.75Z"/>
    <path d="M222.44,214.02c1.29,1.28-6.44,7.53-8.63,6.71-.47-2.04,2.52-3.23,3.95-4.19.91-.61,3.87-3.31,4.67-2.52Z"/>
    <path d="M230.11,282.16c-3.75-.8-3.7-4.34-3.82-7.67,3.78.09,4.03,4.86,3.82,7.67Z"/>
    <path d="M363.54,113.24c-1.16,1.06-8.75-6.61-7.67-7.66,2.38-.67,8.15,7.23,7.67,7.66Z"/>
    <path d="M417.28,232.25c-.19,2.48,1.08,6.47-1.9,7.68l-.97-7.68h2.87Z"/>
    <path d="M407.69,247.6c.68-1.96,2.92-2.8,4.67-3.49,1.45-.57,1.25-2.23,2.99.14-1.81,2.31-4.79,3.37-7.66,3.35Z"/>
  </g>
</svg>