<?xml version="1.0" encoding="UTF-8"?>
<svg id="Layer_1" xmlns="http://www.w3.org/2000/svg" version="1.1" viewBox="0 0 1920 1080">
  <!-- Generator: Adobe Illustrator 29.2.1, SVG Export Plug-In . SVG Version: 2.1.0 Build 116)  -->
  <g>
    <path d="M719.67,317.97l-67.14-9.52c-25.41,1.76-50.79-3.79-75.96-3.17-2.29.06-4.42,1.51-6.33,1.51-6.99-.01-7.96-5.62-.03-6.27,10.35-.86,24.28-.28,34.92,0,3.53.09,6.37,1.6,9.37,1.7,30.65.95,70.12-.49,99.23,9.85,2.7.96,6.49,1.97,5.93,5.92Z"/>
    <path d="M507.86,153.58c-.49-2.46-3.74-5.49,2.34-6.36,17.96-2.58,40.32,3.19,58.48-1.59,8.85.54,18.21-.6,26.96,0,2.86.19,5.13-.51,7.06,2.43l-13.54,3.83c-27.11,1.61-54.03,1.52-81.3,1.69.19.97.19,4.59,0,4.72-.42.3-8.69,1.52-10.24,1.64-7.98.63-20.54.61-28.53,0-4.04-.3-11.78-1.38-14.97-4.01-.74-3.85,3.07-2.25,5.52-2.36,15.64-.67,32.37.1,48.22,0Z"/>
    <path d="M673.04,104.58c2.89.77,1.87,5-.19,6.39-16.8-.5-33.68.44-50.48-.01-4.22-.11-8.39-1.43-12.48-1.61-10.85-.49-21.21.43-32.05-1.2-3.07-.46-4.23.35-3.6-3.56h98.8Z"/>
    <path d="M468.33,642.02c-.29.26-4.34.97-5.49,1.46-23.32-5.34-47.4-8.93-71.13-10.98-3.03-.26-18.4,1.85-16.64-3.9,1.61-5.26,20.47.23,24.6.67,20.55,2.21,36.73,3.28,57.13,7.68,1.27.27,16.55.68,11.52,5.06Z"/>
    <path d="M574.25,340.11c.17.16.2,4.61,0,4.74-.43.28-8.71,1.5-10.25,1.62-14,1.12-35.72,3.43-49.1,1.59-7.04-.97-7.28-5.56-1.55-6.4s13.03.44,19.05.08c11.64-.7,23.82-.28,34.85-1.52,1.5-.17,6.65-.42,7-.1Z"/>
    <path d="M716.51,344.84c-13.48.36-27.2-3.38-40.27-4.78-9.32-.99-22.92-.02-31.66-1.54-6.22-1.07-7.77-6.62,1.63-6.42,6.42.13,16.94,1.11,23.56,1.79,8.9.92,35.13,3.91,42.47,6.53,1.75.62,3.78,2.58,4.27,4.42Z"/>
    <path d="M520.5,300.58c-3.12,2.7-18.22,3.98-22.78,4.89-10.22,2.03-21.61,5.16-31.87,6.15-7.06.69-7.18-5.65.45-7.54,10.83-2.69,24.78-3.65,35.92-5.17,2.96-.4,14.36-3.23,15.77-2.94,1.69.35,3.38,3.87,2.52,4.61Z"/>
    <path d="M367.17,626.22c.5.45-.04,3.73-.74,4.79-2.39,3.58-16.33.04-20.57-.09-7.64-.23-24.27,1.71-29.86-1.74-6.35-3.92-.37-5.74,4.48-6.18,8.53-.77,15.98.91,23.88,1.53,3.24.25,21.75.74,22.82,1.69Z"/>
    <path d="M609.03,151.99c-2.56-2.3,2.88-4.6,5.46-4.81,9.35-.78,22.11-.28,31.73.03,8.66.28,19.61.94,28.44,1.59,9.29.69,9.29,4.12,0,4.81-12.6.93-24.45-1.19-36.35-1.66-4.56-.18-28.19,1.02-29.28.04Z"/>
    <path d="M653.28,58.73c.24.21.32,6.32,0,6.32h-52.96c-1.65,0-3.02-4.49-2.37-6.32,7.12,1.39,53.25-1.83,55.33,0Z"/>
    <path d="M122.15,182.03c-4.35,3.9-30.43-.96-37.1-1.62-5.55-.55-10.03,1.04-15.7-1.47-1.66-.73-1.13-4.64-.95-4.8.63-.55,14.06-.2,16.65-.05,7.24.42,16.26,2.45,23.62,3.25,1.42.15,19.06-.31,13.48,4.69Z"/>
    <path d="M591.64,253.18c.13,3.26.74,3.04-2.35,3.16-4.26.15-8.91,1.12-12.38,1.12-11.46,0-28.4-.77-39.77-2.64-1.57-.26-7.13,0-7.13-2.44s5.37-2.28,7.07-2.4c11.15-.82,21.05.99,31.6,1.66,7.74.49,15.5-1.28,22.96,1.55Z"/>
    <path d="M605.86,210.49c-3.51,7.67-14.24,4.23-21.43,4.68s-46.05,3.38-48.12,1.63c-2.29-1.93-.15-2.96,2.37-3.12,11.23-.69,23.73-2.76,34.73-3.24s21.69.43,32.45.05Z"/>
    <path d="M586.89,57.16c.67,4.14-.62,2.83-3.49,3.55-8.02,2.02-14.66.69-22.63,1.15-2.7.16-5.12,1.52-7.82,1.67s-17.55.57-18.23-.05c-.2-.18-.16-4.22.15-5.38,1.55-5.69,16.78-1.08,21.15-.9,10.25.43,20.62-.4,30.86-.04Z"/>
    <path d="M563.18,308.49c1.01.9-.65,3.81-2.64,4.48-8.98,3-20.35.8-29.7,3.5-3.75-.63-15.5,1.62-16.66-2.45-.27-.96-.57-3.78.79-3.95,3.95-.49,8.45.33,12.6-.03,1.54-.13,2.84-1.54,3.2-1.54,4.79,0,31.2-1.08,32.41,0Z"/>
    <path d="M656.45,251.6c.25,3.89.44,2.75-2.4,3.1-8.08.98-18.51.45-26.88.09-2.7-.11-5.12-1.53-7.82-1.67-3.76-.19-22.11.8-22.97.04-.18-.16-.18-4.58,0-4.74,2.27-2,52.97,1.52,60.07,3.17Z"/>
    <path d="M485.73,114.07c1.95,1.53.07,2.8-1.98,3.5-10.43,3.57-27.24,3.62-38.38,2.86-2.86-.19-5.13.51-7.06-2.43l11.95-3.84c7.89.58,29.53-4.75,35.46-.09Z"/>
    <path d="M503.12,354.34c.18.16.71,4.06-.95,4.8-7.59,3.39-18.72,2.47-26.76,3.06-6.65.49-12.47,3.57-19.72.03.79-2.34,3.03-4.4,5.52-4.75,7.59-1.05,16.22-.86,23.77-1.52,3.41-.3,16.19-3.32,18.14-1.62Z"/>
    <path d="M357.68,68.22h43.47c2.25,0,4.71,6.22-3.16,6.45-3.1.09-5.61-1.56-7.9-1.56-1.93,0-4.03,1.43-6.29,1.47-5.92.13-20.54,1.03-25.2-.18-3.89-1.01-.75-4.07-.92-6.19Z"/>
    <path d="M289.71,110.9c.94.82-.66,3.94-2.58,4.53-6.67,2.05-31.57-.94-38.86-3.42-1.68-.57-5.66-.68-4.4-3.47s4.63-2.34,7.07-2.44c8.96-.39,18.6,3.21,27.39,4.41,2.17.3,10.3-.55,11.37.39Z"/>
    <path d="M504.69,572.47c-2.45,2.2-31.21-2.43-36.74-3.56-3.69-.75-7.57-1.81-11.22-2.78-1.86-.5-1.22-4.56-1.04-4.72,2.19-1.97,40,7.07,46.41,6.54,1.85.3,3.48,3.72,2.59,4.52Z"/>
    <path d="M635.9,336.95c-1.79,4.63-9.35,3.38-13.48,3.2-12.29-.54-24.85-2.41-37.79-1.74l-10.38-3.83c3.38-3.6,9.64-.85,13.38-.78,16.23.29,32.29.69,48.26,3.15Z"/>
    <path d="M531.56,219.96c-2.94,2.57-15.29,1.19-19.8,1.55-8.01.63-17.2,2.37-25.31,2.92-2.26.15-7.47.31-8.63-2.1-1.35-2.79,5.7-3.69,7.21-3.84,12.66-1.21,25.12-1.3,37.88-1.63,2.19-.06,4.93-1.77,6.13-1.52,1.68.35,3.39,3.86,2.51,4.62Z"/>
    <path d="M201.19,155.16c-.97.87-22.7.32-26.12.05-5.97-.47-13.99-2.17-20.27-3.15-1.23-.19-1.75-3.55-2.6-4.79l46.42,3.36c1.83.33,3.47,3.72,2.58,4.53Z"/>
    <path d="M544.21,629.39c-.82,2.41-2.99,4.3-5.53,4.74-9.49,1.64-23.58-.55-33.16-1.63-2.07-.23-8.25.48-8.75.04-.18-.16-.18-4.58,0-4.74,2.56-2.26,40.8,2.52,47.43,1.58Z"/>
    <path d="M122.14,450.76c.26.33.18,2.45,1.53,3.95,6.65,7.42,10.1,13.09,14.06,22.36,2.88,6.72,2.09,10.44-4.56,4.57-2.27-2.01-11.3-17.7-13.25-21.52-2.71-5.31-.69-13.07,2.23-9.36Z"/>
    <path d="M542.64,572.48c.43.33.31,4.44-1.54,5.58-4.01,2.46-8.31-.34-12.01-.73-6.29-.67-10.1-.55-16.5-2.54-2.95-.92-4.3-.79-3.15-4.67.49-1.66,3.52-2.98,5.4-2.35l27.8,4.72Z"/>
    <path d="M434.35,58.73c-1.04-.29-4.24-6.08-3.95-6.31,2.77-2.29,7.52-.02,10.23.03,9.87.17,19.67-.91,29.29,1.55-1.3,1.2-1.33,4.73-1.58,4.73-7.45,0-28.65,1.49-33.99,0Z"/>
    <path d="M219.43,566.2c3.69-1.07,13.27,6.15,16.43,8.75,4.19,3.46,13.64,11.89,2.47,11.86-5.74-.01-4.34-3.06-7.18-5.57-2.34-2.07-6.04-3.44-8.61-5.62-2.18-1.84-8.95-7.74-3.11-9.43Z"/>
    <path d="M242.29,134.6c-10.03,2.8-21.42,2.3-31.28-1.11s-1.96-7.32,5.22-6.84c4.06.27,8.63,2.21,12.75,3.1,4.4.94,10.77-1.07,13.32,4.85Z"/>
    <path d="M566.34,393.86c.52-.48,9.47.26,11.9.04,2.84-.25,23.06-4.41,22.86.75-.17,4.48-13.59,3.64-16.48,4.06s-14.51,3.25-15.8,2.99c-2.66-.53-3.21-7.17-2.49-7.83Z"/>
    <path d="M748.13,261.08c2.45,1.93-1.8,4.03-3.94,4.05-9.6.08-22.62-3.76-32.46-4.8-1.77-.74-2.03-5.09-1.53-5.57,1.38-1.34,36.42,5.14,37.93,6.33Z"/>
    <path d="M651.7,398.59c-1.57,1.41-30.86-.43-35.53.81-9.08-.72-1.25-7.63,6.27-7.23,2.71.14,5.15,1.62,7.87,1.73,1.88.08,27.89-1.17,21.38,4.7Z"/>
    <path d="M668.3,257.91c-1.12-.18-9.56-3.3-5.55-5.55,5.3-2.96,15.74.47,21.31.85,2.97.2,16.02-.59,16.65-.04.18.16.23,4.74,0,4.74-9.33,0-23.92,1.33-32.41,0Z"/>
    <path d="M566.34,104.58c.24.21.24,6.11,0,6.32-1.89,1.71-18.97-1.19-22.88-1.62-4.93-.54-13.48,2.57-13.48-4.7,4.96.9,34.99-1.2,36.36,0Z"/>
    <path d="M653.28,400.18c-1.15-1.03,1.71-4.83,3.14-5.55,5.39-2.71,11.45.48,16.57.85,4.31.31,15.2-.93,18.22,1.55.53.44-2.03,3.15-2.37,3.15-5.16,0-34.24,1.19-35.57,0Z"/>
    <path d="M152.19,161.49c1.27,3.41-3.19,4.55-5.66,4.73-3.58.26-6.07-1.39-9.32-1.63-5.4-.4-10.7,1.33-15.65-1.74-1.48-.91-3.89-3.35-2.57-4.53,1.86-1.67,28.53,1.91,33.19,3.17Z"/>
    <path d="M324.49,95.09h-24.5c-2.12,0-3.19-7.15-2.38-7.9,1.63-1.49,11.99,1.25,14.97,1.63,5.7.71,12.88-2.67,11.9,6.27Z"/>
    <path d="M112.67,453.92h-24.5c-3.53,0-2.55-7.53,3.19-7.99,2.39-.19,5.09,1.54,7.83,1.71,3.87.24,9.18-.8,12.56.08,3.89,1.02.75,4.07.92,6.19Z"/>
    <path d="M256.51,611.99c-.18-.16-.71-4.07.95-4.8,1.31-.58,3.25-1.25,4.65-1.44,4.18-.57,13.77-2,17.35-1.76,7.11.48,7.37,4.96.86,7.17-4.02-.21-22.35,2.11-23.81.83Z"/>
    <path d="M166.4,504.5c1.36,5.58,9.31,8.97,13.45,12.65,3.09,2.74,7.79,7.14,10.28,10.27,1.65,2.08,1.17,3.61-.81,3.96-4.5.79-7.59-6.3-10.18-8.77-4.53-4.31-22.52-11.58-12.73-18.11Z"/>
    <path d="M523.66,112.48h-29.24c-.34,0-2.9-2.72-2.37-3.15,2.36-1.9,26.97-4.01,30.69-3.04s.75,4.07.92,6.19Z"/>
    <path d="M468.34,256.32c-2.03,1.66-13.26,1.14-16.49,1.69-4.13.7-8.44,2.26-12.7,3.12-1.86.38-4.52,2.54-5.58-.87-.98-3.15,3.39-3.59,5.33-4.14,4.43-1.27,23.68-5.33,26.87-4.34,1.94.61,3.49,3.78,2.57,4.53Z"/>
    <path d="M430.4,65.05c-.76.75-18.25-.26-21.31-.85-1.7-.33-7.07,0-5.55-3.08,4.01-8.12,16-.84,22.95-2.42,3.17-.54,5.22,5.05,3.91,6.36Z"/>
    <path d="M215.41,561.41c-1.51,1.62-5.94-3.52-7.15-4.7-3.76-6.33-10.3-11.38-14.21-17.41-1.35-2.08-.02-4.29,1.61-4.76,1.9-.55,4.33,2.61,5.51,3.95,2.82,3.22,7.57,9.83,10.17,13.54,1.16,1.66,5.72,7.59,4.06,9.37Z"/>
    <path d="M307.89,613.58c.62.17,2.85,2.76,2.37,3.15-1.3,1.07-10.88,3.04-13.37,3.24s-16.04.48-16.67-.07c-2.07-1.8,1.49-6.32,3.96-6.32,5.58,0,19.61-1.12,23.71,0Z"/>
    <path d="M531.57,47.67c.18.16.2,4.61,0,4.74-.37.25-7.44,1.34-8.82,1.47-3.46.34-17.03,1.31-18.06-2.27-.32-1.11-.68-3.5.91-3.92,2.71-.72,24.98-.88,25.96-.02Z"/>
    <path d="M345.04,504.5c.56-4.01,7.61-9.3,11.15-11.77,8.67-6.06,7.52.84,2.35,5.51-3.04,2.75-9.54,5.7-13.5,6.26-.87,6.26,2.54,15.94,1.43,19.59-1.34,4.36-7.33,3.89-7.83-2.91-.2-2.67-.96-15.62.16-16.6.67-.58,4.58.16,6.24-.08Z"/>
    <path d="M364.01,76.13c.23.21.23,6.1,0,6.32-.68.61-15.63.28-18.25.07-1.64-.13-5.5-.69-5.45-2.43.01-.44,2.9-5.15,4.09-5.39s3.97,1.37,6.12,1.48c2.54.13,12.99-.5,13.49-.05Z"/>
    <path d="M496.79,42.93c.94.83-.66,3.94-2.58,4.53-3.52,1.08-16.47.51-21.59.64-1.2.03-3.15,1.94-4.27-1.23-.99-2.8-.83-3.78,2.34-3.95s6.39.27,9.55.05c2.72-.19,5.1-1.74,7.73-1.6,1.07.05,8.49,1.26,8.83,1.56Z"/>
    <path d="M469.13,637.29c-1.26-.34-3.27-3.91-2.37-4.74,1.06-.98,24.35-.13,27.32.36,2.73.45,5.25,1.09,4.29,4.37-7.95-1.37-22.25,1.87-29.24,0Z"/>
    <path d="M476.24,411.25c6.1,5.2-16.38,4.96-18.24,4.8-8.23-.67-6.17-6.04,0-7.95,4.26,2.59,15.23.57,18.25,3.15Z"/>
    <path d="M526.82,245.26c3.23,3.27-2.37,2.86-3.83,3.22-1.38.34-3.07,1.52-3.29,1.52h-26.08c-.67-1.35,1.34-4.74,2.37-4.74,4.42,0,29.74-1.1,30.82,0Z"/>
    <path d="M420.91,447.6c1.09,1.03-3.64,7.34-4.74,8.69-1.87,2.31-8.95,9.76-11.05,11.08s-4.29.04-4.76-1.61c-.57-2,2.01-3.47,3.16-4.73,2.9-3.18,7.83-8.67,11.03-11.1,1.48-1.12,4.65-3.95,6.35-2.33Z"/>
    <path d="M669.09,193.1c5.38,4.76-11.79,4.26-13.08,4.14-3.34-.31-10.57-.53-12.79-1.19-1.9-.56-3.51-3.69-2.57-4.53.68-.61,15.58-.25,18.21-.04,1.57.12,9.84,1.28,10.23,1.62Z"/>
    <path d="M702.28,395.43c-.19-.14-.12-4.51.06-4.66,3.26-2.8,21.02-1.09,22.08,2.3.7,2.23-1.99,3.67-3.91,3.97-2.03.31-17.5-1.06-18.23-1.61Z"/>
    <path d="M689.64,169.39c4.44,4.89-16.07,21.9-18.96,18.96-1.42-1.45.95-4.87,2.31-6.38,2.34-2.61,7.9-6.58,11.12-9.43,1-.88,4.11-4.72,5.53-3.16Z"/>
    <path d="M469.91,224.72c1.39,1.36-.78,4.84-2.34,6.35-1.36,1.32-15.99,11.81-16.62,11.04-.24-.3-.32-6.89.23-7.67,4.02-.42,15.63-12.73,18.73-9.71Z"/>
    <path d="M639.05,202.59c.43.43.09,3.48-.75,4.77-2.25,3.43-7.59.28-11.05-.09-2.8-.3-13.23.9-13.47-3.9s11.25-.92,13.38-.75c2.38.2,11.45-.48,11.9-.04Z"/>
    <path d="M419.34,544.03c.2.13.18,4.58,0,4.74-1.18,1-22.61,1.13-23.72-2.38-1.98-6.31,22.32-3.32,23.72-2.36Z"/>
    <path d="M537.89,404.92c.74,4.67-1.06,2.56-3.77,3.29-6.77,1.8-10.95,1.18-17.62,1.41-2.2.08-5.31,1.8-6.26,1.63-4.35-.77.38-6.33,1.56-6.33h26.08Z"/>
    <path d="M264.42,594.61c5.18,4.51-18.3,8.49-20.54,6.32-2.61-2.53,2.8-6.93,5.84-7.6,2.06-.45,14.12.78,14.7,1.28Z"/>
    <path d="M569.5,615.16c2.65,2.28-1.97,3.44-2.98,4.05-2.45,1.47-5.29,2.36-7.33,3.8-2.25,1.59-3.68,4.34-6.54,6.11-1.78,1.1-4.47,2.63-5.26-.54s.68-3.68,2.6-5.29c2.9-2.44,16.54-10.71,19.52-8.13Z"/>
    <path d="M744.96,363.82c.65.73,5.44,18.27,4.75,18.96-1.13,1.13-5.02-.54-6.39-2.3-1.29-1.65-4.04-9.28-4.42-11.47-.87-5.08,4.8-6.6,6.06-5.19Z"/>
    <path d="M363.95,534.62c.18.15.23,4.5.06,4.65-.62.55-14.51.34-16.64.04-4.67-.66-5.04-6.13-3.12-6.36,3.7-.45,17.34-.36,19.7,1.67Z"/>
    <path d="M449.31,139.44c.17.16.23,4.49.06,4.65-1.19,1.08-17.67-2.28-18.88-3.26-.24-.2-.31-6-.09-6.22.91-.91,17.7,3.74,18.91,4.83Z"/>
    <path d="M389.3,539.28c.46.46.06,3.44-.78,4.75-1.92,3-4.04.15-6.52.09s-13.83.76-14.84-.1c-.18-.15-.15-4.54.03-4.68,2.9-2.35,7.33-.14,10.21-.02,2.33.09,11.47-.45,11.9-.03Z"/>
    <path d="M446.22,550.35c.2.13.18,4.58,0,4.73-1.78,1.43-18.7-.11-20.5-1.66-.18-.15-.23-4.5-.06-4.65.39-.34,8.49-.18,10.32-.04,1.42.11,9.81,1.34,10.24,1.62Z"/>
    <path d="M567.92,403.34c5.2,4.22-14.03,5.82-15.87,5.79-7.64-.14-5.17-5.39,1.14-6.9,2.24-.54,13.57.17,14.73,1.11Z"/>
    <path d="M499.55,410.05c2.39-.32,9.94-.59,7.52,2.77-1.6,2.23-14.83,3.23-18.57,3.58-1.16.11-6.19,2.02-5.92-1.21.09-1.05,3.77-3.72,5.51-3.96,3.62-.5,7.46-.64,11.47-1.18Z"/>
    <path d="M572.68,611.99c-.38-2.83-3.81-18.25-3.17-18.96,3.49-3.89,9.46,12.67,9.51,15.08.07,3.5-3.34,4.42-6.34,3.88Z"/>
    <path d="M425.66,438.11c-1.84-1.8.3-3.7,1.99-5.12,4.02-3.36,8.88-5.7,12.21-9.91,1.43-2.17,4.78.91,4.75,1.6-.06,1.19-15.69,16.62-18.95,13.43Z"/>
    <path d="M158.51,502.92c-3.14,2.9-17.89-11.93-14.22-15.8.8-.84,5.62.03,6.06,2.62.9,2.21,9.83,11.63,8.15,13.18Z"/>
    <path d="M566.34,589.86c-2.41,2.29-11.58-4.27-13.81-5.94-1.58-1.18-3.32-.46-1.98-4.32.87-2.51,2.19-2.08,4.2-1.06,2.3,1.17,15.28,7.83,11.6,11.33Z"/>
    <path d="M670.22,65.51c1.86,1.74,7.17,10.01,5.19,12.19-1.57,1.73-13.91-10.91-13.9-11.83,0-.21,1.12-3.82,1.26-3.97.78-.84,6.46,2.69,7.44,3.61Z"/>
    <path d="M395.62,477.62c-.47.42-10.43,2.52-12.26,2.76-13.68,1.82-9.41-3.9.52-5.8,1.39-.27,8.96-1.38,9.44-1.34,1.61.14,3.09,3.69,2.31,4.39Z"/>
    <path d="M488.88,242.1c.7,4.24-.71,2.74-3.49,3.55-3.06.89-7.27,1.98-10.35,2.41-7.95,1.12-9.94-4.91-1.1-5.89,4.9-.54,10.02.21,14.94-.07Z"/>
    <path d="M740.23,299.01c-.18,1.27.27,4.5,0,4.74-.88.78-15.51-.09-17.33-1.67-.18-.15-.22-4.48-.06-4.65,1.01-1.01,14.2,3.09,17.39,1.58Z"/>
    <path d="M737.06,360.65c-1.15,1.14-6.31-3.09-7.77-4.08s-9.58-7.13-9.6-7.77c-.05-1.28,3.17-2.83,5.32-2.18,1.45.44,7.33,6.73,8.89,8.5.91,1.03,4.7,4.01,3.16,5.53Z"/>
    <path d="M759.19,287.95c.22.22.15,6.02-.1,6.21-3.26-.8-7.94,3.57-9.97,3.11-.83-.19-4.14-3.51-4.14-3.79-.03-1.7,12.38-7.36,14.21-5.53Z"/>
    <path d="M746.55,385.95c.12,3.35.72,3-2.36,3.16-2.64.13-16,.55-16.61,0-.95-.86.67-3.94,2.58-4.52,5.17-1.59,11.25.9,16.4,1.37Z"/>
    <path d="M454.11,357.49c-3.35,3.91-12.03-15.99-5.53-15.79,1.49.05,7.04,14.02,5.53,15.79Z"/>
    <path d="M676.98,99.83c-1.27,1.68-3.19.6-3.2-2.41-.02-4.55,2.4-8.76,1.64-13.4,7.73-1.43,3.48,13.28,1.56,15.8Z"/>
    <path d="M694.38,161.48c-2.45,2.95-3.36-2.17-3.89-3.14-1.06-1.91-5.44-9.46-4-11.08,2.76-3.1,10.1,11.57,7.9,14.22Z"/>
    <path d="M457.27,316.4c1.43,1.67-2.93,9.15-4,11.08-.54.98-1.41,6.05-3.89,3.14-1.93-2.26,5.34-17.21,7.9-14.22Z"/>
    <path d="M760.74,270.56c1.04,1.55,3.02,14.16-.76,14.21-3.48.04-1.46-11.72-3.95-14.2,1.29.12,4.55-.24,4.71,0Z"/>
    <path d="M371.53,482.03c-.79.78-8.33,5.88-9.1,5.08-1.88-1.95,5.87-10.91,8.7-11.04,2.33-.11,2.07,4.33.41,5.96Z"/>
    <path d="M435.14,120.38c.84.93-.16,11.03-2.36,12.65-3.12-1.2-2.89-12.06-2.37-12.65.16-.18,4.58-.17,4.74,0Z"/>
    <path d="M441.46,242.1c2.34,2.29-10.23,12-11.05,11.06-1.75-1.98.92-4.62,2.61-6.08,1.28-1.1,7.35-6.05,8.45-4.98Z"/>
  </g>
  <g>
    <path d="M1401.56,399.39c-6.35-.1-13.75,2.07-19.79,1.64-24.57-1.74-49.91-8.78-74.37-11.01-6.61-.6-14.12.74-20.39-.16-2.24-.32-8.02-2.53-7.16-5.47,1.05-3.58,4.05-1.39,5.93-1.23,34.54,2.92,69.2,6.73,103.6,10.46,4.4.48,12.81.21,12.18,5.77Z"/>
    <path d="M1382.59,891.01c5.74,4.93-12.1,4.54-13.48,4.69-19.74,2.17-41.46,2.28-61.56,3.25-3.79.18-18.8,1.13-19.79-2.42-1.84-6.58,6.99-3.45,11.89-3.9,24.46-2.25,51.05-5.52,75.89-3.26,1.27.12,6.67,1.31,7.06,1.65Z"/>
    <path d="M1373.05,513.29c.18.15.23,4.5.06,4.65-.52.46-8.07-.26-10.33-.04-14.31,1.36-30.78,1.44-45.72,1.71-13.97.25-28-.35-41.96-.08-.67-4.14.62-2.83,3.49-3.55,6.81-1.71,11.37-.67,17.89-1.15,22.3-1.63,45.43-4.9,68-3.28,1.94.14,7.45.77,8.57,1.74Z"/>
    <path d="M1714.55,805.65c2.04,1.8-2.48,4.25-3.65,5.04-14.78,9.93-51.67,18.74-70.3,24.55-3.24,1.01-5.81,2.5-8.8,3.86-1.93.88-3.48,1.58-4.18-1.05-1.29-4.82,7.44-8.1,11.04-9.49,18.24-7.03,40.15-11.07,58.9-16.98,2.88-.91,15.43-7.3,16.99-5.92Z"/>
    <path d="M1376.27,796.16c.58.56-1.87,7.78-3.12,8.73-4,3.03-27.72,6.13-34.13,6.97-4.11.54-8.29-.23-12.42.22-4.49.49-21.47,6.1-23.03.67-.3-1.05-.68-3.65.92-3.92,15.66-2.65,31.22-5.36,47.16-6.47,3.91.1,23.72-7.08,24.62-6.19Z"/>
    <path d="M1724.04,800.9c-.32-.33-1.75-5.22-.91-6.35,3.65-4.95,20.83-9.24,27.29-12.31,11.04-5.24,20.76-13.9,32.93-17.66,1.85-.57,4.53-2.59,5.49.77.77,2.68-3.01,3.74-4.71,4.76-7.83,4.73-16.41,8.41-23.19,14.75l-36.91,16.04Z"/>
    <path d="M1218.19,898.9c-1.23-7.61,6.02-6.85,11.91-6.35,14.5,1.22,29.48,1.53,44.12,3.29,8.79,1.05,13.69,7.59,2.03,7.35-6.48-.13-12.74-.79-19.28-1.17-12.93-.74-25.97-.2-38.78-3.13Z"/>
    <path d="M1191.33,611.22c-.37,3.31,5.52.78,6.31,1.58.26.26.28,2.62-.76,3.18-6.25,1.87-20.83,14.89-25.57,15.62-1.92.29-6.86-3.55-3.69-5.35,8.2-3.37,14.99-9.83,23.7-11.87-.78-2.86-7.71-5.78-3.17-8.69,14.06-4.81,29.01-7.59,43.08-12.24,6.32-2.09,12.95-5.98,18.92-7.96,2.01-.67,6.16-1.36,5.96,1.24-.45,6.04-55.92,23.57-64.79,24.51Z"/>
    <path d="M1559.63,924.2c1.85,1.77-.3,3.71-1.99,5.12-15.1,12.63-29.69,16.84-47.03,24.09-1.88.79-6.73,5.2-7.88,3.97-.79-.84-.08-5.45,1.58-7.1,4.53-4.53,12.08-5.41,17.38-7.91,4.25-2,8.51-4.12,12.69-6.28,3.97-2.05,22.25-14.74,25.25-11.89Z"/>
    <path d="M1333.59,987.43c-1.09-1.03,3.64-7.34,4.74-8.69,7.6-9.35,24.93-26.14,35.86-30.53,1.68-.67,4.31-3.08,5.23.51.97,3.78-1.29,4.21-3.64,5.83-12.84,8.82-22.52,22.2-35.87,30.52-1.39.87-4.44,4.15-6.32,2.37Z"/>
    <path d="M1365.2,622.29c.14,3.35.71,3-2.35,3.15-4.45.22-9.92.34-14.32.07-6.94-.42-15.21-2.83-22.01-3.28-9.76-.65-20.48.91-30.13.1-1.12-.09-10.44-1.73-7.06-4.79.48-.44,9.5.19,11.88.04,9.35-.61,12.7-.82,22.21-.15,14.02,1,28.07,1.63,41.78,4.86Z"/>
    <path d="M1196.06,669.7c.45.45.36,6.15-1.58,7.1-10.91,5.01-20.48,14.32-30.5,20.08-6.51,3.75-22.62,7.86-12.07-1.01,7.28-6.12,23.61-17.15,32.01-21.73,2.03-1.11,10.68-5.9,12.14-4.45Z"/>
    <path d="M1279.85,685.51c-.6-.62-.2-6.06,1.49-7.19,3.57-2.39,7.23.68,10.36.71,15.41.12,31.63.58,47.46,1.71,13.53.97,4.27,5.43-4.78,5.59-16.27.29-33.56-1.8-49.29-1.95-1.67-.02-4.81,1.58-5.24,1.13Z"/>
    <path d="M1275.1,623.86c2.06,1.77-2.5,4.26-3.65,5.04-9.92,6.67-20.53,13.58-30.57,20.02-6.26,4.01-13.57,5.3-20.11,8.34-1.96.91-13.1,8.27-13.63,7.7-2.39-2.57,8.62-9.68,10.56-10.78,7.81-4.41,16.04-5.68,23.42-11.36,2.57-1.98,4.51-5.08,7.18-7.04,3.58-2.63,23.68-14.61,26.8-11.92Z"/>
    <path d="M1428.43,911.56c1.03,1.06-.92,5.34-1.8,6.89-4.21,7.41-14,9.8-20.26,14.51-4.8,3.61-9.83,11.37-14.27,14.18-2.09,1.32-4.34,0-4.76-1.62-.26-.98,5.94-10.15,7.23-11.73,4.93-6.04,20.18-15.26,27.55-19.87,1.36-.85,4.56-4.17,6.32-2.36Z"/>
    <path d="M1434.75,977.95c.21.22.27,5.52-.17,6.14-.3.42-2.88.65-4.07,1.4-4.7,2.97-10.36,5.88-14.61,9.16-3.36,2.6-20.99,20.93-25.4,16.48-.4-.4-.14-5.1.72-6.38.6-.89,10.56-6.36,13.03-8.32.77-.61.99-2.5,2.1-3.35,3.51-2.7,26.07-17.58,28.4-15.14Z"/>
    <path d="M1458.46,892.59c.93.9-.14,4.1-1.59,5.52-1.69,1.65-4.71,2.19-7.04,2.44-5.97.63-17.46-.74-23.66-1.75-4.92-.8-18.86-3.37-8.39-8.16,6.55-3,19.63,1.38,27.2,1.99,2.57.21,12.99-.51,13.48-.04Z"/>
    <path d="M1675.03,494.24c1.02,1.01-.03,5.22-2.61,6.07-11.25,3.71-28.84,3.07-40.89,3.36-5.26.13-11.3,3.15-16.55-2.34-.74-3.85,3.07-2.25,5.52-2.36,13.81-.6,30.86-.36,44.23-2.27,2.34-.33,9.17-3.6,10.31-2.47Z"/>
    <path d="M1127.57,601.99c2.99-.86,7.79.4,6.84,3.68-.5,1.72-9.81,7.15-12.13,8.43-7.05,3.86-20.51,9.71-28.1,11.43-1.26.29-5.9,2.11-5.59-.88.48-4.61,24.53-13.73,29.52-16.31,2.89-1.5,7.22-5.7,9.47-6.35Z"/>
    <path d="M1112.29,506.88c-3.15-2.82,4.31-4.91,7.14-4.85,6.96.13,16.49,2.6,23.71,3.04,6.68.41,14.89-.37,22.15.2,1.72.13,6.99-.05,7.06,2.41.07,2.32-12.36,3.34-14.8,3.41-7,.18-14.98-2.12-22.38-.99-3.28-1.81-22.01-2.44-22.87-3.21Z"/>
    <path d="M1226.09,533.76c.21.22.3,5.29-.24,6.08-1.19,1.71-15.92,7.85-19.27,9.96-6.49,4.07-12.39,10.08-18.52,14.67-5.64,4.22-11.96,6.84-4.63-1.47,10.24-11.63,19.83-17.9,33.12-25.36,1.67-.94,6.77-6.67,9.55-3.88Z"/>
    <path d="M1207.13,418.36c-.53-.53-.25-4.55,1.53-5.57,5.26-3.01,18.36-1.85,24.59-2.29,2.73-.19,23.12-4.45,22.86.75-.05,1-3.77,3.72-5.51,3.96-12.06,1.67-24.57,1.14-36.35,1.78-1.68.09-6.29,2.2-7.13,1.37Z"/>
    <path d="M1474,464.55c.35.23.18,1.68.78,2.23,11.09,10.24,21.03,24.36,31.11,36.16,5.34,6.25,3.75,7.76-2.37,2.37-9.15-8.06-15.09-15.5-22.92-24.5-2.4-2.76-15.69-13.56-12.64-16.59.21-.21,5.07-.32,6.05.34Z"/>
    <path d="M1376.12,600.3c.49.72.68,6.25-.66,6.19-11.34-3.7-25.76-4.01-36.83-7.44-2.12-.66-9.07-4.54-6.62-6.8,1.15-1.07,14.95,1.22,18,1.76,3.5.62,25.35,5.19,26.11,6.3Z"/>
    <path d="M1278.26,473.69c1.04.96-1.07,3.89-2.29,4.81-3.83,2.87-8.37.99-12.77,1.46-9.08.98-17.38,2.47-26.89,1.7-6.23-.51-7.99-4.47-1.55-6.43,4.77,1.87,41.9-3.02,43.5-1.54Z"/>
    <path d="M1589.67,892.59c-2.52-2.44,10.16-15.25,11.74-17.5,5.03-7.13,8.74-15.19,14.47-21.88,2.32-.96,3.41-7.68,6.18-6.45,3.61,1.6,2.11,4.36.55,6.86-5.64,9.02-14.65,19.16-20.98,28.02-1.88,2.63-5.91,10.89-7.19,11.84-.53.39-4.6-.71-4.77-.88Z"/>
    <path d="M1532.77,524.28c2.03-1.98,23.34,2.49,27.77,3.05,2.7.34,14.99-1.25,13.32,4.05s-18.62,1.13-22.87.76c-5.07-.44-13.41,1.82-16.72-2.25-1.17-1.44-2.38-4.75-1.49-5.61Z"/>
    <path d="M1815.71,527.44c.67,4.14-.62,2.82-3.49,3.55-5.69,1.44-9.36.64-14.58,1.3-5.53.7-33.1,5.33-35.68,3.05-.18-.16-.18-4.58,0-4.74.55-.49,9.46.26,11.91.04,5.85-.52,13.08-2.83,18.88-3.25,7.44-.54,15.45.47,22.96.05Z"/>
    <path d="M1287.72,810.41c.2.2,1.56,4.96,1.48,5.32-.83,3.98-8.7,3.61-11.38,4.5-6.76,2.27-12.74,5.41-20.05,6.83-8.16,1.59-7.46-2.33-.91-5.66,4-2.03,29.1-12.75,30.85-10.99Z"/>
    <path d="M1444.24,769.29c1.66,1.65-2.31,7.85-3.88,9.55-2.96,3.18-7.48,4.55-10.26,7.13-1.65,1.53-9.15,13.89-12.73,10.19-4.92-5.09,15.44-22.76,19.71-25.33,1.8-1.09,6.04-2.64,7.15-1.53Z"/>
    <path d="M1823.11,744.24c4.67-.93,7.28,2.5,2.68,5.87-6.19,4.54-16.62,6.33-23.84,9.36-2.01.85-8.29,7.01-9.93,1.12-2.09-7.5,15.99-9.46,20.55-11.05,3.34-1.17,7.6-4.71,10.54-5.3Z"/>
    <path d="M1204.76,421.52c1.08.29,5.23,5.18,3.95,6.32-1.19,1.05-29.77,1.96-31.66.84-3.24-1.9-.78-7.16.84-7.16,6.24,0,22.28-1.25,26.87,0Z"/>
    <path d="M1170.38,437.74c3.28-1.67,12.42-.06,9.11,4.36-2.97,3.96-20.07,2.99-25.45,6.27-5.41.64-7.83-4.56-2.84-7.69,5.76-3.63,13.04-.21,19.18-2.94Z"/>
    <path d="M1606.27,506.88c2.12.56,2.81,4.24,2.37,6.32-9.7-1.52-31.05,8.62-31.61-6.32,7.97,1.37,22.22-1.86,29.24,0Z"/>
    <path d="M1433.54,726.22c1.57,1.5,5.2,1.42,5.9,2.06,1.5,1.35,1.18,6.29-4.79,3.97-6.46-2.51-7.59-7.3-11.01-9.54-2.43-1.59-15.08-6.64-15.57-7.35-.45-.64-.39-5.92-.18-6.14,2.58-2.62,19.24,9.06,22.19,11.8,1.89,1.75,2.46,4.23,3.46,5.2Z"/>
    <path d="M1221.34,840.44c.2.19,1.55,4.98,1.48,5.32-.69,3.32-28.55,11.54-29.92,10.47-.17-.13-1.52-3.74-1.53-3.96-.09-2.43,15.7-6.72,18.92-7.9,2.3-.84,9.36-5.61,11.05-3.94Z"/>
    <path d="M1472.69,970.05c.59.57.28,4.33-1.59,5.51-8.08,5.12-20.88.5-30.01,2.38-2.05-13.14,12.76-5.91,21.16-6.41,2.18-.13,9.02-2.87,10.44-1.49Z"/>
    <path d="M1093.32,660.22c-.24-.21-.32-6.32,0-6.32h33.99c.17,0,2.36,2.2,2.36,2.37,0,1.04-7.73,3.95-8.68,3.95-4.04,0-26.63.91-27.66,0Z"/>
    <path d="M1119.58,448.58c1.95-.6,5.57-.41,7.77-.23,3.98.33,10.15,1.1,14.07,1.73,24.27,3.9,4.58,7.88-7.84,6.25-3.89-2.04-15.45-.42-16.55-4.01-.48-1.56,1.18-3.34,2.55-3.75Z"/>
    <path d="M1186.15,736.37c2.05-.28,4.15,1.84,3.59,3.66-.42,1.37-7.23,4.83-8.99,5.24-1.43.33-17.49,1.93-18.39,1.7-.96-.24-4-3.07-4.23-3.78-1.82-5.58,13.41-3.7,16.47-4.06,3.64-.42,8.02-2.29,11.54-2.76Z"/>
    <path d="M1259.37,585.85c-.16-.14-1.64-3.67-1.64-3.88-.01-3.06,7.8-2.11,10.15-2.48,2.99-.48,26.37-6.32,26.18-.68-.11,3.23-32.82,8.65-34.69,7.04Z"/>
    <path d="M1215.04,902.07c.19.14.2,4.61,0,4.74-.43.28-8.71,1.5-10.25,1.62-3.85.31-15.81.66-18.8-.24-1.34-.4-4.12-4.8-4.13-5.34-.14-4.84,12.63-.85,14.96-.73,3.36.18,16.37-1.46,18.23-.06Z"/>
    <path d="M1404.72,516.37c-14.65-12.28-26.2-27.47-39.51-41.09,6.91-.23,14.04,7.6,18.22,12.6,5.61,6.71,11.86,13.82,17.24,20.7,1.62,2.07,4.11,5.09,4.06,7.79Z"/>
    <path d="M1178.68,576.43c-5.6,1.72-11.84,4.69-16.89,7.62-2.77,1.61-17.91,12.93-19.46,11.35-1.68-1.7.13-3.72,1.98-5.13,4.79-3.65,27.4-19.47,31.87-18.5,1.54.33,3,2.86,2.51,4.66Z"/>
    <path d="M1192.11,489.5c.44.03,1.65,1.37,3.2,1.54,3.71.42,11.58-2.15,10.24,3.19-11.98,3.46-24.72.91-36.88-.25-3.92-1.38-1.53-4.48-.27-4.48,7.67,0,16.2-.56,23.71,0Z"/>
    <path d="M1218.19,713.97c1.83,1.8-.92,4.6-2.62,6.07-3.33,2.88-7.44,5.37-10.81,8.15-1.92,1.58-10.03,12.38-11.85,5.52-.72-2.74.88-3.83,2.33-5.56,2.01-2.39,9.24-8.34,11.96-10.17,1.73-1.16,9.52-5.46,11-4.01Z"/>
    <path d="M1384.17,802.48c-1.15-1.02.75-3.67,2.68-4.43,7.48-2.98,15.91-.68,23.44-3.35,1.15.5,5.3,1.25,5.49,1.46.22.24-1.26,6.32-1.58,6.32-4.49,0-28.91,1-30.03,0Z"/>
    <path d="M1416.9,414.07c-.55-.73-2.61-.85-3.43-2.02-.38-.54-2.39-5.26-2.4-5.56-.05-2.79,3.8-2.68,6.31,0,5.44,5.81,11.48,15.26,15.82,22.13,1.25,1.98,1.84,3.21-.82,3.95-4.3,1.2-13.05-15.28-15.48-18.51Z"/>
    <path d="M1425.26,535.34c.43.56,1.37,5.63,2.52,7.78,2.16,4.05,5.82,6.61,7.7,9.68,4.17,6.77,10.15,15.82,10.33,23.65-7.58-3.35-7.84-12.21-11.26-17.98-3.64-6.12-8.67-10.24-11.74-18.29-1.33-3.48.07-7.92,2.45-4.83Z"/>
    <path d="M1358.88,1022.23c.2.13.18,4.56,0,4.72-1.12.99-20.82-1.05-24.56-1.53-7.78-1-4.49-6.24-2.92-6.44,3.25-.42,8.96-.2,12.34.18,2,.23,14.5,2.64,15.14,3.06Z"/>
    <path d="M1226.89,525.85c-1.26-.34-3.27-3.91-2.37-4.74.67-.62,15.07.2,18.22.04s15.11-4.42,16.55.76c.42,1.51-1.84,3.94-2.37,3.94-6.92,0-24.9,1.37-30.03,0Z"/>
    <path d="M1374.69,696.56c-3.56,2.12-6.75.04-10.23-.03-6.34-.11-14.51.86-20.41.1-1.49-.19-4.89-5.78,2.91-6.44,5.68-.48,16.25.8,22.21,1.62,2.48.34,4.73,2.41,5.52,4.75Z"/>
    <path d="M1279.84,691.83c6.29,5.65-17.94,4.66-19.64,4.85-5.92.68-10.96,5.82-15.12-.92l8.8-3.83c3.77.42,25-.97,25.97-.11Z"/>
    <path d="M1248.1,829.49c.26.19,2.1,5.78,1.72,6.18-1.32,1.37-26.98,6.41-28.45-.79l20.1-5.19c1.63-.34,5.64-.93,6.64-.2Z"/>
    <path d="M1278.26,393.07c.53.52.29,4.47-1.56,5.55-3.45,2-15.22,2.94-20.13,3.66-4.56.67-3.37-4.63-1.87-7.49,4.08.46,21.71-3.51,23.56-1.72Z"/>
    <path d="M1496.41,952.66c.18.17.7,4.17-.93,4.83-1.85.74-4,.91-5.81,1.87-2.98,1.59-14.38,10.03-16.97,7.52-5.49-5.31,19.98-17.77,23.71-14.22Z"/>
    <path d="M1404.72,704.48c.91.79-.82,4.17-2.55,4.65-6.3-2.35-19.16-.84-24.36-3.82-1.79-1.03-2.06-5.06-1.53-5.57,1.07-1.04,27.22,3.67,28.45,4.75Z"/>
    <path d="M1325.68,1015.88c-1.82-.47-5.61-5.94-5.72-7.05-.21-2.11.72-12.85,1.07-15.79.11-.91,1.32-5.39,1.51-5.61,1.36-1.58,4.4,1.41,4.76,3.92,1.04,7.15.06,17.5-1.62,24.53Z"/>
    <path d="M1325.68,454.72c.67,4.14-.62,2.83-3.49,3.55-6.76,1.7-17.13,1.82-24.23,1.25-1.64-.13-5.55-.69-5.46-2.43.01-.23,1.87-3.98,2.54-3.92,10.16.86,20.3,2.34,30.63,1.55Z"/>
    <path d="M1728.78,505.31c3.54,2.64-5.87,4.49-7.22,4.62-4.2.41-8.41-.24-12.58.06-2.14.15-9.14,2.68-10.23,1.62-.55-.53-.23-4.51,1.53-5.58,2.88-1.75,10.99-.48,15.11-.69s9.19-3.17,13.4-.04Z"/>
    <path d="M1188.16,857.81c.33.38,1.65,5.04.89,6.3-.6.99-9.41,9.82-10.36,10.4-1.21.73-4.91-1.39-5.65-2.42-3.09-4.32,13.03-16.67,15.12-14.27Z"/>
    <path d="M1332.02,584.34c.2.13.17,4.58,0,4.74-1.19,1.04-21.25-1.14-23.74-2.34-1.42-.69-4.28-4.52-3.13-5.55.38-.34,8.31-.08,10.15.11,2.19.24,16.02,2.58,16.73,3.05Z"/>
    <path d="M1407.85,884.75c.18.15.24,4.53.04,4.66-.37.24-7.35,1.53-8.66,1.64-5.82.51-13.21,1.21-16.63-4,4.62-4.24,9.16-2.1,13.39-2.3,3.46-.17,8.36-2.87,11.86,0Z"/>
    <path d="M1450.55,732.93c.62.82,3.05,11.46,3.2,13.4.42,5.27-.32,19.03-6.42,11.16-2.95-3.81-.1-5.55.12-9.5.23-4.21-.26-8.49-.05-12.71.13-2.62,1.5-4.52,3.15-2.35Z"/>
    <path d="M1245.07,701.32c.18.17.7,4.15-.93,4.83-3.93,1.62-20.9,8.18-22.78,2.27-1.48-4.66,7.93-3.79,9.94-4.27,2.8-.68,11.83-4.67,13.77-2.82Z"/>
    <path d="M1569.12,916.29c-2.87-2.94,3.83-9.95,6.39-11.78,2.11-1.51,9.61-6.3,10.99-1.64.55,1.85-5.5,7.38-7.11,8.68s-8.57,6.48-10.27,4.74Z"/>
    <path d="M1399.97,639.66c-5.1-1.88-2.6-7.94-3.1-11.9-.32-2.51-4.05-16.75.74-16.53,5.35.24,4.72,24.14,2.36,28.44Z"/>
    <path d="M1093.32,468.94c-1.56-1.45,2.27-4.52,3.16-5.53,1.9-2.15,10.16-12.13,11.04-12.67,2.09-1.31,4.35,0,4.77,1.63.96,3.68-15.64,19.68-18.97,16.57Z"/>
    <path d="M1205.7,481.73c.53-.4,11.45-.45,13.32-.18,7.72,1.13,2.86,6.67-3.61,7.65-2.69.41-11.98.68-11.28-3.46.06-.38,1.4-3.89,1.57-4.02Z"/>
    <path d="M1185,898.9c-.88.91-4.12-.11-5.52-1.58-2.11-2.21-6.21-15.9-1.58-17.38,3.07-.98,3.55,3.46,4.36,5.11,1.35,2.76,4.57,11.96,2.74,13.85Z"/>
    <path d="M1105.96,503.72c-2.13,1.96-12.22-5.31-14.14-7.19-1.13-1.11-5.94-7.58-4.82-8.6,3.72-3.39,13.46,7.6,15.8,10.27.88,1,4.72,4.09,3.16,5.53Z"/>
    <path d="M1414.2,536.91c-.53.53-12.58.14-14.91-.1-2.44-.25-8.7-.91-7.23-4.63,4.62-.76,18.91-3.74,21.4-.06.85,1.26,1.14,4.39.73,4.79Z"/>
    <path d="M1147.06,706.07c.69.55-2.46,2.76-2.88,4.22-.67,2.28.02,4.96-.58,7.32-1.4,5.49-6.25,6.79-1.99,13.68.9,1.46,10.06,9.89,8.62,11.12-1.67,1.44-8.15-1.56-9.93-3.12-3.8-3.34-9.35-10.79-1.13-11.12-3.71-2.85-1.59-22.15,0-23.7.29-.28,7.58,1.34,7.9,1.6Z"/>
    <path d="M1452.62,447.93c.74.8,2.41,1,3.36,2.09,2.33,2.66,3.93,6.44,7.23,8.65-1.28,2.24-4.08.28-5.6-.73-2.2-1.47-12.36-11.85-14.19-14.26-1.13-1.48-3.94-4.64-2.33-6.35,2.52-2.68,10.39,9.38,11.53,10.6Z"/>
    <path d="M1382.59,1009.56c4.23,3.76-13.6,7.52-15.37,7.6-4.13.19-8.12-6.63-1.26-7.63,2.09-.31,16.01-.52,16.63.04Z"/>
    <path d="M1754.06,519.53c.66,4.09-.59,2.86-3.48,3.55-5.91,1.42-17.01,5-21.8.38l10.38-3.83,14.9-.11Z"/>
    <path d="M1396.82,529.01h-22.13c-.73-4.66,1.04-2.57,3.77-3.29,2.26-.59,15.09-3.13,15.88-2.97,2.31.46,2.89,4.11,2.48,6.26Z"/>
    <path d="M1166.03,631.77c.89,3.96-1.62,3.38-4.37,4.28-3.05.99-7.03,1.93-10.2,2.51-2.06.38-4.9,2.12-5.98-1.27-1.69-5.31,17.93-6.14,20.54-5.52Z"/>
    <path d="M1354.13,467.36c-.66.59-15.8.26-17.43-.74-1.76-1.07-2.07-5.04-1.53-5.58,1.44-1.41,23.71,2.08,18.96,6.32Z"/>
    <path d="M1079.09,622.27c1.09-1.36,7.44,1.65,7.59,3.94.04.65-4.51,11.87-5.22,11.86-4.08-.08-3.45-14.46-2.37-15.8Z"/>
    <path d="M1134.42,647.58c.8-.6,9.87-5.29,10.98-5.65,2.02-.65,4.89.06,4.82,1.69-.05,1-8.92,7.97-10.53,8.46-4.16,1.27-6.44-3.62-5.27-4.5Z"/>
    <path d="M1512.52,517.65c-.18-.16-2.07-4.28-1.88-4.43,1.62-1.36,17.04,2,17.37,5.52.29,3.04-4.47,1.09-5.62.91-2.07-.33-8.92-1.11-9.87-2Z"/>
    <path d="M1388.91,639.66c-.99,1.03-9.13-4.82-10.61-5.98-1.13-.9-5.66-3.29-3.61-5.07,2.3-2.01,17.92,7.2,14.22,11.06Z"/>
    <path d="M1283.01,475.26c-2.32-2.39,6.18-11.75,8.68-11.06,2.78.77,1.98,2,.81,3.94-1.25,2.08-7.15,9.52-9.49,7.12Z"/>
    <path d="M1392.07,614.37c-1.92,1.64-12.33-.79-12.62-5.53-.35-5.7,15.93,2.7,12.62,5.53Z"/>
    <path d="M1088.57,653.89c-.7.81-9.4-6.48-10.64-7.52-1.7-1.42-3.78-3.19-1.99-5.12.98-1.05,9.24,5.33,10.21,6.38s3.26,5.29,2.42,6.26Z"/>
    <path d="M1086.99,481.59c-1.78,2.09-3.03.24-3.16-2.35-.25-4.99.17-10.06,0-15.04,4.46.45,3.74,16.69,3.15,17.38Z"/>
    <path d="M1418.94,530.59c-.59.7-6.78-6.7-9.1-6.67-1.71-1.67-1.86-6.12.41-5.96.78.06,11.02,9.88,8.69,12.63Z"/>
  </g>
</svg>